<svg xmlns="http://www.w3.org/2000/svg" xmlns:xlink="http://www.w3.org/1999/xlink" id="_0" data-name="0" viewBox="0 0 1224 792"><defs><linearGradient id="Sky_15" x1="-30.2" x2="1254.2" y1="396" y2="396" gradientUnits="userSpaceOnUse"><stop offset="0" stop-color="#ec7d4c"/><stop offset=".8" stop-color="#f6b744"/><stop offset="1" stop-color="#f8c642"/></linearGradient><linearGradient id="linear-gradient" x1="-122.3" x2="1401.8" y1="645" y2="645" gradientUnits="userSpaceOnUse"><stop offset="0" stop-color="#5080b1"/><stop offset=".1" stop-color="#477dae"/><stop offset=".3" stop-color="#2d73a7"/><stop offset=".6" stop-color="#04649c"/><stop offset=".6" stop-color="#00639b"/><stop offset=".7" stop-color="#295b7e"/><stop offset=".8" stop-color="#4a5568"/></linearGradient><linearGradient id="Earthtone_5" x1="620.7" x2="790.5" y1="262.4" y2="262.4" gradientUnits="userSpaceOnUse"><stop offset="0" stop-color="#e0c595"/><stop offset=".5" stop-color="#c7983c"/><stop offset="1" stop-color="#bf7c26"/></linearGradient><linearGradient id="Earthtone_1" x1="620.8" x2="732.5" y1="268.4" y2="268.4" gradientUnits="userSpaceOnUse"><stop offset="0" stop-color="#f7eac7"/><stop offset=".5" stop-color="#f2db9c"/><stop offset="1" stop-color="#eac54d"/></linearGradient><linearGradient id="Earthtone_11" x1="399.4" x2="894.7" y1="490.1" y2="490.1" gradientUnits="userSpaceOnUse"><stop offset="0" stop-color="#6d583f"/><stop offset=".5" stop-color="#483318"/><stop offset="1" stop-color="#282913"/></linearGradient><linearGradient id="Sky_3" x1="115.9" x2="457.2" y1="168.9" y2="168.9" gradientUnits="userSpaceOnUse"><stop offset="0" stop-color="#cce0f4"/><stop offset=".1" stop-color="#c3dcf2"/><stop offset=".2" stop-color="#a9d2ee"/><stop offset=".3" stop-color="#80c2e7"/><stop offset=".5" stop-color="#47acde"/><stop offset=".6" stop-color="#1e9cd7"/><stop offset=".9" stop-color="#0075be"/><stop offset="1" stop-color="#005b97"/></linearGradient><linearGradient id="Gold" x1="113.4" x2="459.7" y1="168.9" y2="168.9" gradientUnits="userSpaceOnUse"><stop offset="0" stop-color="#ffe7a3"/><stop offset=".5" stop-color="#ffca05"/><stop offset="1" stop-color="#faac18"/></linearGradient><linearGradient id="Sky_3-2" x1="927.1" x2="1124.4" y1="323.9" y2="323.9" xlink:href="#Sky_3"/><linearGradient id="Gold-2" x1="924.6" x2="1126.9" y1="323.9" y2="323.9" xlink:href="#Gold"/><linearGradient id="linear-gradient-2" x1="639.8" x2="639.8" y1="371" y2="919" gradientUnits="userSpaceOnUse"><stop offset="0" stop-color="#4a5568" stop-opacity="0"/><stop offset=".4" stop-color="#4a5568" stop-opacity="0"/><stop offset=".8" stop-color="#4a5568"/></linearGradient><linearGradient id="linear-gradient-3" x1="1401.8" x2="-122.3" y1="645" y2="645" gradientUnits="userSpaceOnUse"><stop offset="0" stop-color="#4a5568" stop-opacity="0"/><stop offset=".6" stop-color="#4a5568" stop-opacity="0"/><stop offset=".9" stop-color="#4a5568"/></linearGradient><radialGradient id="radial-gradient" cx="1082" cy="117.3" r="294.6" xlink:href="#Sky_15"/><style>.cls-1{fill:url(#Sky_15)}.cls-2{fill-opacity:.25;fill:url(#radial-gradient)}.cls-3{fill:url(#linear-gradient)}.cls-4{opacity:.32}.cls-5{opacity:.85}.cls-6{fill:#d5d6d9}.cls-7{fill:#efeff0}.cls-8{fill:#bfc1c4}.cls-9{fill:#84878e}.cls-10{fill:#70747b}.cls-11{fill:#a9abaf}.cls-12{fill:#979aa0}.cls-13{fill:#585d66}.cls-14{opacity:.93}.cls-15{fill:url(#Earthtone_5)}.cls-16{fill:url(#Earthtone_1)}.cls-17{fill:url(#Earthtone_11)}.cls-18,.cls-19{stroke-miterlimit:10;stroke-width:5px}.cls-18{opacity:.5;fill:url(#Sky_3);stroke:url(#Gold)}.cls-19{opacity:.3;fill:url(#Sky_3-2);stroke:url(#Gold-2)}.cls-20{fill:url(#linear-gradient-2)}.cls-21{fill:url(#linear-gradient-3)}</style></defs><path d="M-30.2-66.6h1284.3v925.2H-30.2z" class="cls-1"/><path d="M1388.7 114.2h-256.5l-.1-2.6 237.4-41.8a3 3 0 10-1.1-6.1l-237 41.8-.5-2.7 195.1-71a3 3 0 00-2.1-5.8L1129.1 97l-1-2.6 199-115a3 3 0 001.1-4.1 3 3 0 00-4.2-1.2L1125.3 88.8a53 53 0 00-1.6-2.5l179.4-150.5a3 3 0 00.4-4.3 3 3 0 00-4.3-.4L1120 81.4l-2-2.2 125-149a3 3 0 00-.4-4.3 3 3 0 00-4.3.4L1113.4 75a53 53 0 00-2.4-1.8l111.8-193.7a3 3 0 00-1.1-4.2 3 3 0 00-4.2 1L1105.7 70l-2.7-1.4 68.6-188.4a3 3 0 00-1.9-4 3 3 0 00-4 2l-68.5 188.2-3-.8 39.4-223.4a3 3 0 00-2.5-3.6 3 3 0 00-3.6 2.5l-39.3 223.4-3.1-.3V-134a3 3 0 00-3.1-3 3 3 0 00-3 3V64.2l-3.2.3-34.5-195.7a3.1 3.1 0 00-3.6-2.5 3.1 3.1 0 00-2.5 3.5l34.6 195.9-3 .8-74-203.4a3 3 0 00-4-1.8 3 3 0 00-1.8 3.9l74.1 203.6c-1 .4-1.9.9-2.7 1.4L957.7-104.1a3 3 0 00-4.2-1 3 3 0 00-1.1 4.1L1053 73.4l-2.4 1.9-129.2-154a3 3 0 00-4.4-.4 3 3 0 00-.3 4.3l129.4 154.2-2 2.2-172.8-145a3 3 0 00-4.3.4 3 3 0 00.4 4.4l173 145.1-1.5 2.4L848.5-21a3 3 0 00-4.2 1.1 3 3 0 001.2 4.2l190.7 110.1-1 2.6-236.7-86.1a3 3 0 10-2 5.8l237 86.2-.6 2.6L825.2 69a3 3 0 10-1 6.1l208 36.7v2.6H775.3a3 3 0 100 6.1h257.3l.3 2.5-238.4 42a3 3 0 00.5 6 3.3 3.3 0 00.6 0l238.8-42 .7 2.2L838 202.9a3 3 0 001 6 3 3 0 001.1-.2l197.5-72 1 2L837 255.4a3 3 0 003 5.3L1042 144l1.4 1.7-182.5 153.1a3 3 0 002 5.5 3 3 0 002-.7l182.7-153.4 1.6 1.5L921 304.4a3 3 0 004.7 4l128.3-153 1.8 1.2L941.1 355a3 3 0 001.1 4.2 3 3 0 001.5.4 3 3 0 002.7-1.5l114.7-198.7 1.9.8-70.7 194.1a3 3 0 001.9 4 3.2 3.2 0 001 .1 3 3 0 002.9-2l70.6-194.2 2 .5-40.5 229.7a3 3 0 002.5 3.5 2.5 2.5 0 00.5 0 3 3 0 003-2.5l40.5-229.6 2 .1v204.7a3 3 0 106.2 0V164l2-.1 35.6 202a3 3 0 003 2.5 3.3 3.3 0 00.5 0 3 3 0 002.5-3.6l-35.6-202c.7 0 1.4-.2 2-.4l76.2 209.1a3 3 0 002.9 2 3 3 0 001-.2 3 3 0 001.9-4l-76.1-209a64 64 0 001.9-.7l103.4 179a3 3 0 002.7 1.6 3 3 0 002.6-4.6l-103.2-178.9 1.8-1.1 132.4 157.8a3 3 0 004.7-4L1115 151.8l1.6-1.4 176 147.6a3 3 0 002 .7 3 3 0 002-5.4l-175.8-147.4 1.4-1.8 193.2 111.6a3 3 0 004.2-1.2 3 3 0 00-1-4.2l-193-111.4 1-2 238.8 86.9a3 3 0 001 .2 3 3 0 001-6L1129 131.2l.8-2.3 208.8 36.8a3.3 3.3 0 00.5 0 3 3 0 00.5-6l-208.2-36.8.3-2.5h257a3 3 0 000-6.2z" class="cls-2"/><path d="M-8.7 377.6c36-16.5 69-5.2 260.2 65.7 303.6 112.5 287 108.8 304.7 113.4 247.8 63.9 490.9 6.8 540.4-5.6 152.6-38.1 208.2-86.6 255.8-52.2 68.6 49.5 69.4 234.7-20 333.6-116.6 128.8-299.3 14.9-754 32.2-388.7 14.8-519.6 108.2-621.5 10-130.3-125.5-86.2-441.8 34.4-497z" class="cls-3"/><g class="cls-4"><g class="cls-5"><g class="cls-5"><path d="M462.8 530c-4.7-2.5-9.9-5-15-7.8l1.5-2.3c-.9-1.1-3.5-2-5.5-3-4.1-1-2.8 1.2-3.8 1.9-2.9-.5-6.1-1.2-9-1.6a7926.8 7926.8 0 01-160-73.8l-32.7-15.5c-6.4-3-12.7-6.3-19-9.6a9 9 0 01-1.4-1.8l1.5-2.2c14.4 8.6 19.3 6.1 28.9 10 4.4 2.7 18.1 9.5 36.7 18.2s42 19.3 65.5 29.8c47 21 94.6 41.8 104.4 47l13 7c2 2.5 3.5 5 5 7.5l-10-3.8z" class="cls-6"/><path d="M440 518.8c1-.7-.3-2.9 3.8-1.8 2 .9 4.6 1.8 5.5 3l-1.5 2.2z" class="cls-7"/><path d="M26.2 410.4a19 19 0 01-3.8 2.2c-.8.3-1.4.2-1.8-.2-.6-.8-.3-3.3 3-6l1.3-.2 1.3 4.2z" class="cls-6"/><path d="M24.9 406.2c-1 1.5-.2 2.4 0 3.2s-.2 1.4-2.5 2.3a3 3 0 01-.6-1.9 2.9 2.9 0 01.7-1.5 7.8 7.8 0 011-1l1.4-1.1z" class="cls-7"/><path d="M1159 579.9l-20.7 8.7-11.1 6.3-11.3 6.2c-1.9-.3-4.2-.5-6.6-.6 3-4-6.2-1.4-9.2-3.2-5.7 2.1-11.4 4.2-17 6.5l-.3-2.3a153 153 0 0121-6.6 45 45 0 0117-5.8l5.6-2.3 5.6-2.4 11.5-5 3.9-1.4 7.2 1.3c1.4.1 2.9.3 4.3.6z" class="cls-8"/><path d="M1116 601l-8.3 3.4c-4.7 1.4-9.7 2.7-14.2 3.9s-8.6 2-11.3 2.4l-4.1 1.2-4.2 1.1-8.4 2.2-8.4 2c-2.8.8-5.6 1.5-8.4 2-11.4 2.6-22.8 5.2-34.4 7.3l-8.7 1.8-8.8 1.7-17.6 3.3-4.5 1-4.4.7-9 1.7c-6 1.2-11.9 2.5-18 3.6l-17.9 2.2c-6 .7-12.3 1.1-18.7 1.7l-9.8.8-10.2.5-10.6.4-5.5.2h-5.7c6.5-.9 12.8-2.1 19.7-3.2 18.3-1.4 42.8-4.4 63.2-10.4 15-2.7 26.6-3.8 37.6-5.7a275 275 0 0016.9-3.4c5.8-1.5 11.9-3.4 18.8-6 2.6-.5 5.7-1.3 8.4-2 5.4-.3 9.9-.4 14-.9a36.2 36.2 0 0012-3.3l-.2-2.2 12.8-3.6v.4l6.3-1.8 6.5-2 1.8-.5.3 2.2 17-6.5c3 1.9 12.3-.8 9.3 3.2l6.6.7z" class="cls-6"/><path d="M1055.6 611.2a36.2 36.2 0 01-12 3.4c-4.1.5-8.6.5-14 .8l13-3.2 6.5-1.5 6.3-1.6c0 .7 0 1.3.2 2.1zM1021 617.5a207.1 207.1 0 01-27.2 7.8l-8.4 1.5c-11 2-22.5 3-37.6 5.7-20.3 6-45 9-63.2 10.4-6.8 1.1-13.2 2.4-19.7 3.2l-4.5.5a33.2 33.2 0 00-4.5-2.3 42 42 0 01-7 1.6 74 74 0 01-7.1.8c-4.7.3-9 .5-12 1.4l-13.3.2-13.3.1c-37 1.1-58.9-2.3-90-2.6-8.4-1.5-19.8-2.3-31.6-3.6s-24.3-3-34.3-6c-5-.8-10-1.7-15-2.8l-7.2-.5a666 666 0 01-71.9-21.4 8.5 8.5 0 00-1-2.8l7.7-.2a80 80 0 0010.6 3.1l14.3 4.5 11.6 3.5 11.8 3.1L623 627c4.8 1.4 9.9 2.5 14.8 3.7 3.4-.2 6.5-.6 10-.9l5.2 1 5.6 1c3.5 2.6 14.4 2.7 21.4 4.5l13 .7 15.2 2.2c6 1.2 9.3 2.4 12.5 3.2a31.3 31.3 0 0011.1 1c5.9.8 8.5-.6 13.5-.7 7.4.7 10.2.5 11.6.1s1.6-1 3.6-1.2c6 0 11.9-.1 17.8-.3 5 .5 8.9.7 12.3.7l9.4-.2 15-.7a20.7 20.7 0 012.1 1.5l8.7-1.2 15.5-.8 7.5-.5 7.5-.6a31.7 31.7 0 014.4 2.3c11.8-.4 9.6-2.5 13.3-3.5l8.6-1 2.3-.2c5-.3 10-.4 15-.9 10.8-1.5 21.7-3 32.5-4.8l10.9-.1c4.5-.7 9-1.6 13-2.4l10.9-1.5 5.4-.8 5.4-.9 21.5-4.6 17.5-3c1.3-.3 2.7-.4 4-.5zM978 583.8l-2.1.9c-11.6 3.8-20.8 4.8-29 7.4l-8.4-.1a75 75 0 00-10.4 2.3l-6.6 1.6-6 .5-6.2.3 4-5.5c6.5-1.1 12.5-2.4 18.6-3.6 6.5-.8 12.6-1.8 19-2.9 3.5-.6 5.2-2 8.2-3.1a33 33 0 019.6-1.4 55.8 55.8 0 019.2 1.3v.6l.1 1.7z" class="cls-8"/><path d="M1083 572.7a66.5 66.5 0 00-5.6 4l-7.8 3.7a125.6 125.6 0 01-19 7.6l-7 1.3c-2 .3-3.7.8-5.4 1.1a62.4 62.4 0 00-8.6 2.7l.1 1c-4.8 1.2-9.6 2.6-14.4 3.7a9 9 0 01-2.3-.5l-11.7 2.1-11.6 2.2-10.6 1.7a45.2 45.2 0 01-4.4 1.5l-4 .8c-5.7 1.4-11.5 2.6-17.2 3.9a12.1 12.1 0 00-9.3 0c-2.6.8-4.9 2.2-7.6 2.4a158 158 0 01-17.4 3l-14.6 1.4-7.5.9-3.9.4-3.7.3-14.7 1.7c.5-1.7-3-1.7-7.2-1.4s-9.2.8-11.9.1l-6.6-.5-6.3.6-6.6.5c-3.6.8-5.1 2.6-10.9 2.4a47.4 47.4 0 00-6-2.2 96.2 96.2 0 01-12.8 0l-4 .2-7 2-12.6-1.8c-1.4.1-2.7.4-4 .7h-14l-14-.3h-6.3l.4-2.7c-4.6-1.4-11.2-2-18.7-2l.4-2.2 8.4-.2c11.4.6 14-1.4 19.3-1.5h2.2l8.1 1.7c9.7.6 14.4-1.8 21.6-2.7l4.4-.1 18.8.8 8.5-.4a59 59 0 0023.4-2.3h6.2l8.7 1.4a22.1 22.1 0 009.1-1.5 31.7 31.7 0 017.8-2.4l12.7-.5 6.2.4 6.6.2c4-.5 5.3-2.6 10.5-2.6l8.4 1c9.7-1 2.2-2.7 10.5-4.5l8.4-1.4v-.6l4.1-.6 4.2-.8c.8-1.4 1.2-2.8 2-4.2 8.3-2.6 17.5-3.6 29-7.4l.3 4.4c1 .1 1.3.4 2.2.5l6.2-.1c-2 3.4-10 3.5-14.2 6.3a14.3 14.3 0 00-2 3.2 34.5 34.5 0 004.4 1.2l12.3-2 7.5-1.6 7.4-1.7 14.9-3.5c4-.6 5.6-2 8.1-3.2-.8-1.4-4.8-1-8.3-1s-6.4-.3-4.8-2.4l5.7-.8 5.2-1 9-1.8c5.5-1.2 10.4-2.4 15.6-4l12.3-2.7c4.1-.9 8.2-1.8 12.3-2.9l6.4-2c1.9.4 4.1.6 6.4.9l.4 2.1z" class="cls-9"/><path d="M851.2 620.4l-7.6 1-7.6.8-8.5.6c-1.4-.1-2.7-.1-4-.3h-7.8l-7.4-.1c-4.4 0-9.8.8-12.9 0l-4.2-.2-4.2-.2-8.4-.3-10.8.8 3.5 3.2-.1 1a32.6 32.6 0 014.1 2.6 36.8 36.8 0 01-4.6 1.2l-4.3.1H751.3l-3.8-1.6c-6.8 0-13.1.2-20 0l-1.6-.5-4.4-.7a129.4 129.4 0 01-24.2 0c-2.5-2.6-8.8-3-12.6-2.7l-12.7-.9a24.8 24.8 0 011.2 2.3l-2.4 1.9-15.4-1.7c-6.3.1-11-1.5-15.8-1.3l-8-2.8c-2.9-.2-6-.5-8.9-.9l-4-2-6.2-1.5-6.1-1.6-9.2-1.5c-5-1.8-9-3-12-4s-4.8-1.9-6-3l-10.2-3.3c-1.8.4-3.6 1-5.4 1.6l-6.5-2.2 1.9-3.4-6-2.1c-4 .7-11-2.4-17.3-4.7-.8.5-2 .8-2.8 1.3-4.4-1.4-8.7-3-12.5-4.3-4.2-1.7-7.8-3.5-12-5.3l-2.3-.4-12.7-5.3-13-5.5-7.2-1.2c-1.4-1.1-3.3-2.3-5.2-3.5l-9.9-4.3-9.6-4.8-15.4-7.2 1.3-2c4.8.7 12.2 4 15.6 7l15.2 4.2-7.4-5c-20.7-7.1-22.5-13.5-43.2-23 4.2 0 11 4.3 14.9 4.7l29.6 13 6 2 2.6-4c-4-2-7.5-3.9-11.6-5.8-10.5-3.3-13.7-4.9-15.3-7.3l-15.2-4.3c-4-2.8-.9-2.7-4-5.2l-4.1-1.8c-2-1.4-45-21.7-87.8-42.2s-85.2-41.7-87.1-43.1l-11.2-6.5c-3.8-2.2-7.3-4.1-11-6.4-12.3-6.5-25.8-8.5-30.5-15.8l8.9 2c5.6 3.4 8.7 2.9 10.6 3.2 5.7 1.7 5.3-.7 9.9 1.1a1025 1025 0 0019 9.6l6.5 5.4c-.5.6 9.9 6.2 26 14.4s37.7 18.7 59.7 29.2c44.1 21 89.6 42 92.8 44 9.6 5.6 6.1.3 13.4 3l12.5 4.4 5.7 2.5 13.7 6.5c2 3.6 4.1 6 9.7 7.7l11.3 6.1-7.2-.1-6.1-2.7c-7-.6-4.8 1.7-4.2 3.4l11.8 4.5L495 561l10.8 4.5 3.8 2.2 7 4.5c5.5 2 9.3 2.4 11.3 1.6l6.6 3.3 7 3.1a40.8 40.8 0 0112.4 3c2.8 1.4 5 2.8 7.7 4.4 4.8 1 9.7 2.1 14.5 3.3l9.7 4.1c8.6 3.3 7-.5 13.4 1.2l3.5 1.2 3.4 1 7.3 2.3c-3 1.7-6.1 3.3-9.2 4.7a61.2 61.2 0 0112 2.5 56 56 0 0110.4 4.5l8.3 1.8c1.4 0 2.7.2 4.5.4l6 1.6 6.4 1.8.7-2 10.8.7c.3-1 6.7.6 12.5 1.1l.6-2c7.1.5 14.2.9 21.4 1l12.4 2.5 13.2-1c7 .7 14 1.3 21.1 1.7h6.3l14 .3h14c1.3-.3 2.7-.6 4-.7 4.4.6 8.8 1.3 12.8 1.7l6.8-1.8 4-.2a66.6 66.6 0 0012.9-.1 47.4 47.4 0 016 2.2 218.5 218.5 0 0123.8-3.4c2.2.1 4.4.2 6.6.5l-4.5 2z" class="cls-10"/><path d="M831 605.8c-5.4 2.2-7.7 4.2-13 4.7l-8.5.5.4-3.3c5.7-.6 11-1.3 16.8-2.2l4.4.3z" class="cls-8"/><path d="M748.3 610.3l-10.5-.2-21.3.3a621.2 621.2 0 01-22-1.6l-7.1-.7c-1.8-1.7-3.5-3.6-5.2-5.4-4 .2-8.5.5-13 .5l-6.8 1.7c-4.3-.6-8.1-1.3-12.4-2.1l-2-1c-4.3-.3-8.8-1-13.3-1.6l-13.7-2a16.5 16.5 0 00-1.7-1.6l-7.7-2.9-7.6-2.8-13.3-1.1c-4-2.7-8.5-5.4-12.5-8 4.7.3 9.2.7 13.5.8l13.6 5.3c6.9 1.3 13.7 3 20.5 4.2l5 1.2 5 1c2.3-.1 4.3-.5 6.6-.7l3 .7 3 .6a922.2 922.2 0 0018 4.2l8 1.3 8 1.2c6.8 1 13.6 1.9 20.5 2.5 14.6 1 29 1.3 44 1.2a6.8 6.8 0 002 .6z" class="cls-11"/><path d="M735.1 612.8l-8.4.2-10.2-2.6c7.1 0 14.2 0 21.3-.3.2 1.4-3.8 1.6-2.7 2.7zM723.4 618.2l-13.2 1-12.4-2.6c-7.2-.1-14.3-.5-21.4-1-5.1-1-10.3-2.2-15.3-3.5l-15.2-4a8.2 8.2 0 002.6-.6l7.3 1 7.4 1c6.2.6 12.8 1 19 1.5 6 1.3 12.3 2.7 18.3 3.8 7 .8 14 1.3 21 1.9 2 .8 2 1.2 2 1.5zM682.5 609.8c-6-1-12.4-2.2-18.3-3.4a17.3 17.3 0 01-1.8-1.5c2.4-.5 4.8-1 6.8-1.7 4.5 0 9-.3 13-.5 1.7 1.8 3.4 3.7 5.2 5.4-2 .5-3.4 1.2-5 1.7zM576 590.8c-4.7-1.2-9.6-2.3-14.5-3.3-2.7-1.6-4.9-3-7.6-4.4a40.8 40.8 0 00-12.4-3c-2.5-1-4.8-2-7-3.1l-6.6-3.3c-2 .8-5.8.3-11.3-1.6-2.3-1.4-4.9-3-7-4.5l-3.9-2.2.8-1.4c14.2 1.4 30.8 9.3 46.8 16.5l15 2.4c7.5 2.6 14.6 4.9 22.2 7.3l-.3.5h-14.1zM524.8 600.4l-.5.9-11-2.6-8-3.2c-3.7-1.7-1.9 1.4-12.7-4.1l-4.2-1.8-13.6-6.2-5.3-4.1-11.6-5-24.5-9.5-19.2-9.7c-2.7-1-46.4-20.9-90-41s-87-41-89.7-42c-2-1-4.3-1.7-6.4-2.5l-32.4-16.5 1.9-2.7L219 460l15.6 7.9c2.4.8 45.4 21.4 88.8 41.4s86.7 39.6 89 40.4l5.4 4 33.2 14.7 7.6 4.5 4.4.7 7.8 3.4 20 8.5 14.4 5.6 7.2 2.8 7.3 2.7 3.8 1.5c1.9 1.3 1.6 1.8 1.3 2.3z" class="cls-8"/><path d="M187.3 442.4l-1.6 2.3c-3.4-1.3-6.9-2.6-10.3-3.7l-19.4-9.3c-4.1-2.6-8.7-5.2-12.8-7.7a8.7 8.7 0 00-5-.3c-1.2.1-2.5 0-6-1.8-5.8-2.8.7-3-6.5-5.3-5.1-2.4-8.2-2-14.6-3.7l-.9 2c-4.8-1-9.5-1.8-14-2.3a90 90 0 00-5.8-1H89a12.3 12.3 0 00-1.6.2l-1.6.3a27.3 27.3 0 01-3.3.2h-1l-1.3-.1a16 16 0 01-2.5-.6 21.5 21.5 0 01-3.8-1.6 54.3 54.3 0 01-4.8-3l-.3.4-2.2-1.2-1-.6-.9-.4-2.8-1.2a16.3 16.3 0 00-6.2-3.1 14.7 14.7 0 00-6.3 0l-3-1.6a33 33 0 018-6.5A24.4 24.4 0 0057 391a22.9 22.9 0 012.5-.4 18.1 18.1 0 015.8 2.1c3.6 2.7 6 5.6 9.5 8.7l1.1 2a12.4 12.4 0 001.8 2.3 12.4 12.4 0 002.7.8 11 11 0 001.5.1h1.2l2.2-.2 1.7-.3a13.8 13.8 0 013.4-.2l3.4.2a146.4 146.4 0 0116 5.4c2.9-2 3.4-3 3.8-4l4.8.4a107.8 107.8 0 0010.8 4c2.4.5 3.8.3 4.7-.8 8.3 1.8 12.2 2.4 17.1 4.7 7 3.2 10.5 5.7 12.9 7.8s4 3.6 7 5.1l8.7 6c5.7 2.8 11.7 5.7 17.1 8.8l-9.5-1z" class="cls-10"/><path d="M174.1 442.7c-5 .5-12-3.4-18.2-7-3.6.7-9.2-2.6-12.2-4.3a127.3 127.3 0 01-16.8-5.2 126 126 0 01-10.6-4.3c1.8-.9 3.6-1.6 5.4-2.2l9.8 3.6 13.7 5.8c2.5.8 5.4 2 8 3l2.8-.4 19.4 9.3zM142.5 382.6c2.5.6 2.8 0 4 .3s3.5 1 9.5 4.5c-4.5-1.8-8.7-3.3-13.5-4.8zM102.3 418.3a77.4 77.4 0 00-9-.8h-1.2a10 10 0 00-1 0 7.5 7.5 0 00-2.6 1 4.2 4.2 0 00-1.6 1.6l-.2.1h-.4l-2 .2H81.8a25.7 25.7 0 01-3.7-.3 27.6 27.6 0 01-6.6-2.1 41 41 0 01-2-1l-1.5-.8a77.4 77.4 0 01-7-5.2l-1.4-1c-.4-.4-.8-.8-1.3-1l-.5.8a7.8 7.8 0 00-4.8-2 5.2 5.2 0 00-3.6 1.2 10 10 0 01-2.3.2H43.9a46.4 46.4 0 00-6.6-.3 26.2 26.2 0 00-4-4.1c2.7-.8 5.5-1.5 8.5-2l4.2-.9 3.3-.5v-.5a14.7 14.7 0 016.3 0 16.3 16.3 0 016.1 3.1c1 .3 1.9.8 2.9 1.2l.8.4 1 .6 2.2 1.1a37.3 37.3 0 003.5 3.3l1 .8 1.4 1a18.1 18.1 0 004.2 1.8 20.7 20.7 0 002.6.5l2 .3H86s.2 0 0 0a22 22 0 012.5.6c2.5.3 2.8 0 3-.7s.7-1.4 4-1l6.8 4.4z" class="cls-8"/><path d="M1111.7 563.7l-12.2 4.8.3 1.7c-2.7 2.6 5.2-1 7 1.5l-10.3 3.4a24.5 24.5 0 01-6.8 0l-12.3 1.7a66.5 66.5 0 015.6-4l8.2-2.6 8-2.7-.5-3.3 12.3-4c1-.6 2.4-1.2 4-1.9l4.6-1.9c3.2-1.2 6.4-2 8-1.6 3.8.8-6 3.9-5.7 5.4l-5 1.9zM1076.3 569.6l-6.4 2c-4 1.1-8.2 2-12.3 2.9l-12.3 2.7a8.7 8.7 0 00-2.1 1.1l-23 5c-4.3 1.3-5.4-.5-10.5 1.5a35.5 35.5 0 00-4.5-1.2 86.2 86.2 0 018-3.4l7.9-2.6c5.5-1.6 11.5-3 19.2-5.2l10.4-1.2c3-1.2 7.6-3.4 10.3-3-2.2 2.1-.2 1.7 2.6.9s6.5-2.2 8-1.9a45.8 45.8 0 016.4 1.4zM977.8 581.5a55.8 55.8 0 00-9-1.3 33 33 0 00-9.7 1.4c-3 1.1-4.7 2.5-8.2 3.1 3.5-.6 5.2-2 8.2-3.1a33 33 0 019.6-1.4 55.8 55.8 0 019.1 1.3zM977.9 582v-.5.6zM913.2 591.2c-1.3 1.9-2.6 3.7-4 5.4l-12.8 1.6-6.3.8-6.2.6c-6.5-1.5-21 .3-27.2 2.4-9.3 1.5-11.5 2.7-15 3l-10.6.8-4.4-.3c-11.8.1-23.6-.5-35.4-.8h-21c-7.1.6-14.2.9-21.3 1.2a6.8 6.8 0 01-2-.6c-15 0-29.4-.2-44-1.2a352 352 0 01-28.5-3.7l-8-1.3a798.9 798.9 0 01-18-4.2l-3-.6-3-.7-6.6.8-5-1.1-5-1.3c-6.9-1.2-13.7-2.8-20.5-4.1l-13.7-5.3c-4.2-.1-8.8-.5-13.5-.8l-10.2-3c-2.7-.8-5.3-1.8-7.8-2.7l-7.9-2.8c-5.7-2.7-9.6-4.6-12.6-5.8a34.6 34.6 0 00-6.9-2.2L525 562 517 559c-5.2-2-10.4-4.3-15.8-6.5l-11.7-8.5a91.7 91.7 0 0120.4 6.9l11.2 1.7c5.8 2.1 12.4 5.4 18.4 5.4 5.3 3-2.8 4.2 7.9 7.1 3.5 1.7 1.3-.4 4.2.4 3.3 1.3 6.6 2.3 10 3.4l5 1.7 5 1.6c3.7 1.3 5.3 2.8 7.5 4.2l10 3.2 1.3-3L579 572a12.3 12.3 0 013.3-1.8l11.4 3.7 8.7 5.4a85.6 85.6 0 0110.5 2.3l10.2 2.8a80.8 80.8 0 009 1.9 16.4 16.4 0 007-.4 43.2 43.2 0 007.4 2.2 49 49 0 007.3.7 58.8 58.8 0 007.1-.3c2.4-.3 4.7-.6 7-1.1a529.4 529.4 0 0058 5.2c9.7.4 19.6.5 29.6.5s20-.2 30-.4c5 0 10-.4 15-.6l15-.7 15-1 7.5-.5 7.5-.7 15-1.4 3.7-.4 3.7-.4 7.5-.9c5-.6 10-1 15-1.8l14.8-2a12 12 0 002.2 3c-9.6 2.5-11.8 4.8-10.5 6.9l12.6-1.3c1.7-1.4 4-2.7 6-4.1l16.6 1c-6.3 1.1-12.4 2.4-18.9 3.5zM829.8 648c3-.8 7.3-1 12-1.3a74 74 0 007.2-.8 42 42 0 007-1.6 33.2 33.2 0 014.4 2.3c-5.7.2-9.8 1.5-14.2 2.3a36.8 36.8 0 01-16.5-.8zM622.3 635a226.6 226.6 0 01-30.7-7.4l-17-5.1-8-2.4-7.2-2c-6-.2-7-3.4-11.9-4.7l-9.8-4.7-2.2-.8a72 72 0 01-22.3-9.2l11 2.6.5-1 18.1 7.4 10.4 3.8a666 666 0 0071.9 21.4l7.2.5 15 2.9c10 2.8 22.3 4.6 34.2 5.9s23.3 2.1 31.6 3.6c31.2.3 53 3.7 90 2.7l-10 .8-9.9.5-18.6.5c-12 0-23.6-.4-35.2-1a1382 1382 0 01-74.5-6.7 31 31 0 00-4-.6l-4.4-.5c-2.8-.3-5-.7-4.8-1.9l-5-1-5-1.2zM505.2 595.5c-3.7-1.7-1.8 1.4-12.7-4.1 10.9 5.5 9 2.4 12.7 4zM474.8 583.4l13.5 6.2c-4.6-2-9-4.1-13.5-6.2zM228 469.6c-25-10.6-37.1-12.7-54.2-19.3-7.4-2.9-15-6.3-22.8-9.5a216.3 216.3 0 00-22.4-8.3c-7.6-2.6-12.7-5.2-18.3-7.5l-3.3-1-3.4-.9a154.9 154.9 0 00-9.7-2.2l-1.5-.3-1.5-.3a42 42 0 00-2-.2 11.8 11.8 0 00-2 0 4.2 4.2 0 011.5-1.7 7.5 7.5 0 012.7-.9 10 10 0 011 0H96c1.9.2 4 .4 6.3.8s4.6 1 7 1.7l7 1.9c1.4.7 5.5 2.4 10.6 4.3a127.3 127.3 0 0016.7 5.2c3 1.7 8.7 5 12.3 4.3 6 3.6 13 7.4 18.2 7l2 1a671 671 0 0115 8 42.6 42.6 0 014.5 1.4zM195.2 404.4l-2-1 2-3 9.7 4.6c3.4 2 5.9 4 8.8 6l-18.5-6.6zM67.9 416.1a14.3 14.3 0 00-2.7-1.5l-2-.8a12 12 0 01-1.3-.7l-1.7-1.2a6.2 6.2 0 01-.6-.4l-.5-.4-1.4-1.4.6-.8 1.3 1 1.3 1 3 2.5a45 45 0 004 2.8z" class="cls-6"/><path d="M1182 562.6a5.1 5.1 0 01-1.6 4.4 23.8 23.8 0 01-4.3 3.6 94.7 94.7 0 01-9.2 5l-8 4.3c-1.4-.3-2.8-.4-4.3-.6l-7.2-1.4 10.2-4.4c9.6-5 17-7.7 24.4-11zM1143.5 579.3l-11.5 5-5.6 2.5-5.6 2.3a44.6 44.6 0 00-17 5.7 14.5 14.5 0 01-1.6 1.2l-2.1 1.2a908 908 0 01-17.3 4.3l-1.8.5a52.5 52.5 0 00-6.4.6 11.7 11.7 0 00-3.1.9c-1.4.6-1.8 1.4-3.3 1.9l-12.9 3.7-6.3 1.6-6.4 1.5-13 3.2-8.5 2.1-4.1.4c-3.3-1.6-13 1.4-17.5 3l-21.5 4.6a111.1 111.1 0 00-11.5 1 38 38 0 00-5.6 1.4l-4.5.9c-4 .7-8.6 1.7-13.1 2.4h-10.9c2.3-.8 4.5-1.7 6.8-2.7l6.4-1 6.4-1.2 12.8-2.4 6.7-1.3c2.2-.4 4.3-1 6.3-1.3l13-1.7a45.6 45.6 0 0010-2.3 27.8 27.8 0 015.1-1.7l8.4-3.1 10.8-.9c4.7-1 9.1-2.1 13.5-3.3l6.5-1.8a193 193 0 006.3-1.9 179.4 179.4 0 0124.6-6l12.6-4 10.5-3.5 10.4-3.8 8.6-.6c2-.6 4.3-1.3 6.6-2.2l6.8-2.5c4.4-1.6 8.7-2.9 12-2.7zM1001.3 584c-2.9 3.2-11.2 4-16.8 5.5l-6.2.2-2.2-.6-.3-4.4 2.2-1c4 0 7.8.2 11.6.3h11.7zM936.4 598.3l-8.3 1.4c-2.2.3-4.4.4-6.6.5V596l6.6-1.6c2.6 1.2 5.7 2.3 8.4 3.5v.5z" class="cls-11"/><path d="M1228 534.3l-4 2.8c-3.7 1.5-8 3-11.7 4.4.7 1.2 2 2.3 2.7 3.6-7 3-14.1 8-21.6 9.7l-11.7 6.7-8.5 1.2-22.6 8.8a415.6 415.6 0 01-41.2 15.8L1099 591l-10.4 3.5-12.6 4a179.4 179.4 0 00-24.6 6l-6.3 1.9-6.4 1.8c-4.4 1.1-8.9 2.3-13.6 3.3l-10.8.9c-8.3-1.8-13.9 1.5-19.2 2.9-3.1.4-5.8.7-9 1.3-11.3-.2-16.1 1.8-17 3.6l-4.4.8-12.8 2.7-6.4 1.3-6.4 1.2-4.5-.4c2.7-2.6 1.3-2.6 0-2.7a20.7 20.7 0 00-10.7 4c-3 .8-6.1 1.5-9.4 2.1l-10 1.8a209 209 0 01-19.4 2l-15.3 1.2c-6.4 0-10.5 2.2-13.3 3-3.6 0-7.2.2-10.8.4-8.2.8-9.4-1.6-19.4-.7-6.7-.4-5.6 2-8.8 2.1l-17.2.3-6.7-.2c-2.2 0-4.3-.2-6.3-.4-5.5.6-3 2.4-9 2.4s-11.8.3-17.7.3h-15a204 204 0 01-9-1.3l.3-1.5c-11.6-1.6-12.8.2-17.4 0l-2.3-.1a49.7 49.7 0 00-24.2-1.7l-13-.7c-7-1.8-17.8-2-21.3-4.6l-5.6-.9-5.2-1-8.7-2.6-8.5-1.8-8.5-1.9-13.2-2.2-12.4-4.4-10.9-2.2c-4.8-1.4-9.5-3-14.3-4.5l-7.7-3.7 5.3-1.6 10.4 3.4c1.2 1 3.1 2 6 3s6.8 2.1 11.9 4l9.2 1.4 6.1 1.6 6.2 1.5 4 2 8.8 1 8.1 2.7c4.8-.1 9.5 1.5 15.8 1.3l15.4 1.7c.7-.6 1.8-1.2 2.4-1.8a24.8 24.8 0 00-1.2-2.3l12.7.9c3.7-.3 10 0 12.6 2.7a129.4 129.4 0 0024.2 0c1.3.1 2.6.4 4.4.7l1.7.5h19.9l3.8 1.6H766.5l4.3-.1a36.8 36.8 0 004.6-1.3 37.2 37.2 0 004.4.5l3.8 2 8.8-2.3 8.8 1.7 12.9-.6 3.2-.1 3.2-.2 6.4-.5 8.7-1.6h9v.3c4-.1 8.5-.3 12.5-.6l6.8-1.6 4.2.6 4.3.7 15-1.8 7.6-1 7.4-1c4.5-1.5 10-3 13-1.8l4.3-.5 4.2-.5 8.5-1.1a145.5 145.5 0 0115.2-2.4 123.1 123.1 0 0015.2-2.6c4-.5 8.5-1.1 12.4-1.9A30 30 0 00986 612l6.5-2.6 3.1-1.2 3-1.2c2.7 0 5.9 0 8.6.2l8.6-2 8.6-2.2 10.4-4.4h6.3l10.6-2.3c-.3 1.4 5.3-.4 10.6-2 4.7-1.9 10-3.8 14.6-6a637 637 0 0114.4-3.9c5.6-2.2 8.3-1.8 12.8-2.5l14.3-7c1.3-.4 2.6-.6 4-.8 11.9-2.5 12.4-4.8 16.7-6l2.1-.9a24.4 24.4 0 012.1 1.5l3.3-.9 3.2-1 6-1.8c.9-4.8 10.5-5.3 16.2-8.6 10.2.9 22-9.3 37.9-16l-.4-1.5c5.8-2.4 12.1-4.8 18-7 0 .8.3 1.5.5 2.5z" class="cls-9"/><path d="M1005.9 615.6a27.8 27.8 0 00-5.2 1.7 45.6 45.6 0 01-10 2.3l-13 1.6-6.2 1.4-6.7 1.2-12.8 2.5-6.4 1.1-6.4 1.1c-2.3 1-4.5 1.9-6.8 2.7-10.8 2-21.7 3.3-32.5 4.9-5 .4-10 .5-15 .8l-2.3.3-8.6 1h-9.5l-5.9-.1a8 8 0 01-2.3 1.3l-7.5.6-7.5.5-15.4.8c-2.7-.8-5.8-1.4-8.4-2.2 3.2-.2 2-2.5 8.8-2.1 10-.9 11.1 1.5 19.3.7l10.9-.5c2.7-.7 6.9-3 13.2-2.9L885 633c3 0 6.1-.3 9.4-.6s6.7-.8 10-1.3l10-1.8s6.5-1.3 9.4-2.1a20.7 20.7 0 0110.8-4c1.3.1 2.7.1 0 2.7l4.5.4 6.4-1.2 6.4-1.3 12.7-2.7 4.5-.8c.8-1.8 5.7-3.8 17-3.6 3-.6 5.8-.9 9-1.3 5.3-1.4 10.9-4.7 19.2-3-3.1 1.1-5.8 2.1-8.4 3.2z" class="cls-12"/><path d="M899.8 636c-5 .5-10 .6-15 1 5-.4 10-.5 15-1zM874 638.2c-3.7 1-1.5 3-13.3 3.5a31.7 31.7 0 00-4.4-2.3 8 8 0 002.3-1.3h5.8c2.5 0 5.5.2 9.6.1zM873.1 605.7a31.7 31.7 0 00-7.7 2.4 22.1 22.1 0 01-9.1 1.5c-3-.4-5.7-1-8.7-1.3h-6.2a59 59 0 01-23.5 2.2c5.4-.5 7.7-2.5 13.2-4.7l10.5-.8c3.5-.3 5.8-1.5 15.1-3a57.1 57.1 0 006 3.7H873zM825.8 641.3l-8.7 1.1a20.7 20.7 0 00-2.1-1.5c1-.6 1.5-1.2 2.4-1.8 2.7.8 5.8 1.4 8.4 2.2z" class="cls-11"/><path d="M809.9 607.7c-7.3 1.8-13 1.5-19.1 2v.4l-4.5.1-8.7 3c-3.5-.4-8-.2-12.4-.3s-8.3-.3-10.8-1.6c-5.3.1-7.8 2-19.2 1.5-1.2-1 2.8-1.3 2.6-2.7l10.6.2.7-4.4c7-.3 14.1-.6 21.2-1.1h21c11.8.3 23.7.8 35.5.8-5.8.8-11.2 1.5-17 2z" class="cls-12"/><path d="M809.5 611l-18.8-.8v-.5c6.2-.5 11.9-.2 19.1-2l-.3 3.3zM760.5 641.5c-2 .2-2.2.8-3.6 1.2s-4.2.6-11.6-.1c-5 0-7.6 1.5-13.5.7a31.3 31.3 0 01-11.2-1c-3-.9-6.4-2-12.4-3.3l8.9-.5 2.3.1c9.6 2.6 11.7 1 17.1 1.6l9 1.3h15zM642.3 631.5l-4.5-.9L623 627c-5-1.3-9.8-2.7-14.8-4.2l-11.8-3.1-11.6-3.5c-4.8-1.4-9.5-3-14.3-4.5a80 80 0 01-10.6-3h-7.8a8.5 8.5 0 011.1 2.9l-10.3-3.8-18.1-7.3c-.6-.9-.7-1.5-1.3-2.3l-3.8-1.5-7.3-2.7-7.2-2.8-14.4-5.7c4.1-.6 6.6.5 14.1 1.9l11.7 5.7a21.4 21.4 0 013.8-2c3.8 1.4 8.1 3 12.4 4.4l24.3 8.9 6.4 2.1 7.7 3.7 14.4 4.5 10.9 2.2 12.3 4.4 13.3 2.2 8.5 2 8.5 1.7 8.6 2.7a51.4 51.4 0 00-5.4 1.7zM599.2 596.1c-6.4-1.7-4.8 2-13.4-1.2l-9.7-4.1 14.1-.1z" class="cls-11"/><path d="M516.6 593l-11.7-5.7c-4.4.4-17.2-6.1-14-1.8l-20-8.5-7.9-3.4-6.4-5.7a46.4 46.4 0 01-5.6.5l-33.3-14.7-5.3-4c-2.4-.8-45.9-20.5-89.1-40.5s-86.4-40.5-88.8-41.4c-5.2-2.6-10.4-5.2-15.6-8l11-.1 29.2 14.1a11075 11075 0 00149.6 70l4.8 4c10.6 3.3 14.8 4.2 19.6 5.7l15.4 7.3a307 307 0 009.6 4.8l9.9 4.3c1.9 1.2 3.8 2.4 5.2 3.5l7.1 1.2 13 5.5 12.8 5.2c.9.3 1.4.3 2.3.5l12 5.3a21.4 21.4 0 00-3.8 2z" class="cls-12"/><path d="M458.7 573l-7.7-4.6a46.4 46.4 0 005.6-.5l6.4 5.7-4.3-.7zM195.6 453a42.6 42.6 0 00-4.4-1.4c-5.1-2.7-9.8-5.3-15-7.9l-2-1 1.2-1.8 10.3 3.8 11.8 5.6zM217.9 416.5l-18.5-6.5-5.7-3.4 1.5-2.2 18.5 6.5c2 1 3.8 2.2 5.7 3.4zM116.3 421.9a165.6 165.6 0 00-14-3.6c-2-1.5-4.5-3-6.6-4.3a19 19 0 01-4 1.1 16.1 16.1 0 01-2.9.4c-.9 0-1.7.2-2.5.3h-1l-1.5.1h-3.3a21 21 0 01-5.9-2.3 17.9 17.9 0 01-2-1.4L71 411c-1.7-1.6-2.7-3-2.4-3.6l.3-.3a54.3 54.3 0 004.8 2.9 21.5 21.5 0 003.8 1.6 16 16 0 002.6.5l1.3.2h1a27.3 27.3 0 003.3-.3l1.6-.2a12.3 12.3 0 011.5-.2h1.6c1.6.2 3.7.5 5.7 1 4.6.5 9.3 1.3 14.1 2.3 4 1.6 8 3.2 11.4 4.8l-5.4 2.2zM29.9 382.2c2 1.4.2 3-1.6 4.6s-3.7 3.2-2.4 4.3a17.8 17.8 0 01-2 1.7l-2.1.8a44.2 44.2 0 00-8.2 2.7c-4.4 2.5-6.9 4.6-8.6 5.6s-2.7 1.2-3.3.8a4.6 4.6 0 01-1.3-2.2c-.3-.9-.8-1.7-1.9-1.8a54.1 54.1 0 019.3-11c.7 0 1.3-.2 2-.4l2-.3 4-.4a72 72 0 0111.7-3.8zM8.1 379a60.4 60.4 0 00-13.7 7.3c.2-1-.7-1.3 0-2.7a11.5 11.5 0 012.3-3A48.4 48.4 0 014 375l2.8-.5c.8-.2 1.8-.1 2.6-.1a9.1 9.1 0 013.4.3c.7.3.8.7.1 1.3a29.2 29.2 0 01-4.7 2.9z" class="cls-11"/><path d="M682.2 610.9l-19-1.4-7.4-1-7.4-1.1 1.6-4.6c4.3.8 8.1 1.5 12.4 2.1a17.3 17.3 0 001.8 1.4c5.9 1.2 12.3 2.5 18.3 3.4l-.3 1.2zM675.8 617.7c-5.8-.5-12.2-2.1-12.5-1.1l-10.8-.7a57.9 57.9 0 00-10.9-2.3c-2.1-.2-2.9.2-2.2.9-1.8-.2-3.1-.4-4.5-.4l-8.3-1.8a56 56 0 00-10.4-4.5 61.2 61.2 0 00-12-2.4c3-1.5 6.2-3.1 9.2-4.8l6 1.6c9 2.2 18 4.2 26.6 5.9 5 1.3 10 2.8 15.2 4l15.3 3.5zM590.5 590.2c-7.6-2.4-14.7-4.7-22.2-7.3a14.6 14.6 0 00-.3-4l10.2 3c4 2.5 8.5 5.2 12.5 8l-.2.3zM557 604.2c-8-2.8-16.1-5.8-24.2-8.8.9-.5 2-.8 2.9-1.4 6.3 2.4 13.3 5.4 17.3 4.7l6 2.1-2 3.4z" class="cls-9"/><path d="M568.3 583l-15-2.5c-16-7.2-32.6-15.1-46.7-16.5l-.9 1.4-10.7-4.5-11-4.7 1-1.9-2.5-3.4c2.6.1 4.7 0 7.2.2-3.4-2-7.4-4-11.3-6l2.6-4.2a407 407 0 01-12.3-3.7l-13.7-6.5 7.9-.7 10 3.8c3.3 2.4 5.7 4.4 8.5 6.6l8.1 3.5 11.8 8.5-.8 1.4c6 2.7 11.4 5.3 16.5 7.4l7.6 3 7.5 2.4.8-1.3a34.6 34.6 0 016.8 2.2c3 1.2 7 3 12.6 5.8l7.9 2.8 7.9 2.8a14.6 14.6 0 01.2 4z" class="cls-12"/><path d="M532 566.6l-7.5-2.4-7.5-3c-5.2-2-10.6-4.6-16.6-7.4l.8-1.4L517 559l7.8 3.2 8 3zM528 573.7c-2 .8-5.9.3-11.4-1.6 5.5 1.9 9.3 2.4 11.3 1.6zM483.9 556.2l-11.8-4.5c-.5-1.7-2.7-4 4.2-3.4l6.2 2.6 2.5 3.4z" class="cls-9"/><path d="M450 558.5a36 36 0 00-15.6-7l-18.1-8A7324.5 7324.5 0 01241.7 461l-11.9-1.3-7.6-4.7-25.4-11.6c-5.4-3-11.5-6-17.1-8.7l-8.8-6c-3-1.6-4.5-3.2-7-5.2s-5.8-4.6-12.8-7.7c-5-2.3-8.8-3-17.1-4.8-.9 1.1-2.3 1.3-4.7.7a107.8 107.8 0 01-10.8-3.9l-4.8-.3c-.5 1-1 2-3.8 4a146.4 146.4 0 00-16-5.4l-3.5-.3a13.8 13.8 0 00-3.4.2l-1.6.3-2.2.2H82a11 11 0 01-1.4-.1 12.4 12.4 0 01-2.7-.8 12.4 12.4 0 01-1.8-2.2l-1.1-2c-3.6-3.1-6-6-9.5-8.7a50.1 50.1 0 017.7 1.7 50 50 0 006.6 3.3 5 5 0 002.5.6 1.3 1.3 0 00.3-.1l.6-.2 1.5-.4a17 17 0 014.1-2l5-1.1a8.6 8.6 0 001.8-.6 1.8 1.8 0 001-.7.9.9 0 00-.3-1 3.8 3.8 0 00-.7-.6 5.7 5.7 0 00-.5-.3l-.8-.4.9-.3.7-.4 1.5-.8 2.9-1.4-3-2.2-1.5-1.2-2-1.4a38.2 38.2 0 00-6.8-.3l-2.2-.9-1-.5h-.4v-.1H83l-.1-.3a.6.6 0 01-.1-.3v.6l.1 2 .1 3V392.6l-.3 3.8.3-3.8v-3.9-2-3.1l-.4-4.6v-.6h.5l.3-.1 1.2-.3a44 44 0 012.3-.4 48.2 48.2 0 019.3-.4l1-.2.6-.1 1.5-.3 2.9-.6c4.1 0 7.6 0 11.4.3l4.8 1.2 4.6 1.1c3.2.8 6.3 1.7 9.4 2.7a39.5 39.5 0 015.4.7l4.7.7c3.3 2.3 6.3 4.8 9.4 7.1l1.9 1.4c5.2 1.6 10.7 3.6 15.7 5.3l3 1.2 3 1.3 6 2.6 12.1 5.2 5.7 3.4 10 7.2c-1.9-.3-5 .2-10.6-3.3l-8.9-1.9c4.8 7.3 18.3 9.3 30.5 15.7l11 6.5 11.2 6.5c2 1.4 44.4 22.5 87.2 43s85.8 40.8 87.7 42.3l4.1 1.8c3.2 2.5 0 2.4 4 5.2l15.2 4.3c1.6 2.4 4.8 4 15.3 7.4l11.6 5.7-2.6 4-6-2-29.7-13c-3.9-.4-10.6-4.7-14.8-4.7 20.7 9.6 22.5 15.9 43.2 23.1l7.3 5z" class="cls-13"/><path d="M478.4 545c-5.6-1.8-7.8-4.1-9.7-7.8L481 541zM455 530.7l-5.8-2.5-12.4-4.4c-7.3-2.6-3.8 2.7-13.4-3-3.2-1.9-48.7-22.8-92.8-44-22-10.4-43.8-21-59.8-29.2s-26.5-13.8-26-14.3l-6.4-5.4a4911.6 4911.6 0 0095.9 45.2c45.7 21.2 91.7 42 96.7 44 2.9.5 6.1 1.2 9 1.6l7.8 3.4c5.1 2.8 10.3 5.4 15 7.9-2.3.4-5 .5-7.8.7zM433 553.5c-4.7-1.5-8.9-2.5-19.5-5.7l-4.8-4a64.9 64.9 0 007.5-.2l18.1 8zM229.8 459.7l-10.9.2c-7-3-14.4-6.4-21.4-9.6l-11.8-5.6 1.6-2.3c3 .4 6.4.8 9.5 1l25.4 11.6zM153.8 391l-2-1.3c-4.6-2.7-9.2-5.4-14-7.8l4.7.7c4.8 1.5 9 3 13.6 4.8l4.1 2.4a47.8 47.8 0 00-6.4 1.3zM131.5 423.3q-4.9-2-9.8-3.6c-3.5-1.6-7.4-3.2-11.4-4.8l.9-2c6.4 1.6 9.5 1.2 14.6 3.7 7.2 2.3.6 2.4 6.5 5.3l-.8 1.4z" class="cls-9"/><path d="M102.2 375.8l-3 .6-1.4.3-.7.2-1 .1a48.2 48.2 0 00-9.3.5c-.8 0-1.5.2-2.3.4l-1.1.2h-.7V379l.2 4.5.1 3.1v5.9l-.3 3.8.3-3.8v-6.1l-.1-3.1-.1-2v-.6c0-.1 0 0 0 0a.6.6 0 000 .3l.2.3H83.3l.3.1 1 .5 2.3 1a38.2 38.2 0 016.8.3l2 1.4 1.5 1.2 3 2.2-3 1.4-1.4.8-.7.3-.8.4.7.3a5.7 5.7 0 01.5.3 3.8 3.8 0 01.7.6.9.9 0 01.3 1 1.8 1.8 0 01-1 .8 8.6 8.6 0 01-1.8.6c-1.5.4-3.3.6-5 1.2a17 17 0 00-4.1 1.9l-1.5.4-.6.1a1.3 1.3 0 01-.3.1 5 5 0 01-2.5-.5 50 50 0 01-6.6-3.3c.3-3.5-2.8-6.4-.9-6.1a39 39 0 014.6 2.9 32.2 32.2 0 003.8 2.3 13 13 0 001.4.7l.5.1a1.9 1.9 0 00.4.1l.4-.1a12.4 12.4 0 00-.5 1.6 2.3 2.3 0 00-.1.4l.2-2.7v-.2a2.9 2.9 0 01.8-1.1l.2-.2.5-.2 1-.3a17.4 17.4 0 012.8-.6l-2.3-.1h-2.2c-.4 0-.6-.1-.6-.2v1.4l-.4 4.3a5.2 5.2 0 01.2-.7 16.5 16.5 0 01.6-1.9l.4-.7.4-.9.5-1 .1-.3v-.2s-.2-.4-.5-.6l-2-2a22.7 22.7 0 00-1.5-2.2l-3-3.3 1.3-1.2c1.8 1.1 3.9 2.6 4.8 3a15 15 0 002.7 1.2 2.3 2.3 0 00.5.2h.3l-.1.3-.4.6c-1.7 3.2-2.5 5-3.1 6.3a20.4 20.4 0 00-1 2.5 6.3 6.3 0 00-.2 1l.3-3.9V391v-2.3-4.7a.5.5 0 01.1 0l.1-.1h.2-.5v.9l.1 2.2V392.7l-.3 3.8a4.5 4.5 0 01.2-.7 21.2 21.2 0 01.8-2.3 65 65 0 012.6-5.4l1.3-2.3.5-.9h-.2a3.4 3.4 0 01-.3-.3l-2.1-1.6-4.2-3.4a10.9 10.9 0 000-4.6 53.7 53.7 0 00-8-6 46.2 46.2 0 00-9.8-4.3 61.9 61.9 0 00-19.2-1l-2.4.3-2 .2-3.4.5-3.4.5-3.5.6-3-.2-2.6-.2a36 36 0 0116-5.6 93.6 93.6 0 018.2-.8 63.7 63.7 0 019 .2 52.4 52.4 0 0119.5 5.8 58.4 58.4 0 018.2 4.8l3.8 2.8 1.8 1.4 1 .6a12.4 12.4 0 011 1.4l.1.3v.4l-.2.4-3 5.4-1.5 2.5-1 2-.9 1.5-2 4.2a17.9 17.9 0 00-1.3 3.4 2 2 0 000 .3l.4-4.3v-4.4l-.1-3.1-.3-4.8-.2-3.2v-1.1h.1l.3-.1 1-.4 1.8-.7a36.9 36.9 0 013.9-1 12 12 0 00-3.6-1.7h4.5c1.5 0 3 .3 4.5.5l2.1.3 1.8.3 3 .6c4.1.8 8 1.8 11.7 2.9-3.8-.3-7.3-.4-11.4-.4z" class="cls-10"/><path d="M76.8 391.2a39 39 0 00-4.6-3 32.4 32.4 0 00-11.2-5.7 36.1 36.1 0 015-3.4 13.9 13.9 0 005.3.5c1.2 0 2.9.2 6.7 3l2.9 3.3a22.7 22.7 0 011.5 2.2l2 1.9.6.6-.1.2-.1.3-.5 1-.4 1-.4.7a16.5 16.5 0 00-.6 1.8 5.2 5.2 0 00-.2.7l.4-4.3v-1.4l.6.2h4.6a17.4 17.4 0 00-2.9.7l-1 .3-.4.2-.2.2a2.9 2.9 0 00-.8 1.1v.2c0-.6-.5 5.3-.2 2.8a2.3 2.3 0 010-.5 12.4 12.4 0 01.5-1.6c0 .1-.1.2-.3.1a1.9 1.9 0 01-.4 0l-.6-.2a13 13 0 01-1.3-.6 32.2 32.2 0 01-4-2.3z" class="cls-9"/><path d="M82.4 375.6v1l.3 3.2.3 4.8.1 3.1V392.1l-.3 4.3a2 2 0 010-.3 17.9 17.9 0 011.2-3.4l2-4.2 1-1.6 1-1.9 1.3-2.4 3.1-5.4.2-.4v-.4l-.1-.3a12.4 12.4 0 00-1-1.4 9.4 9.4 0 001.7.8h.2l-.9 1.6-3.1 5.5-1.7 2.8-1.1 2.2-1 1.7-.6 1.4-.6 1.1-1.3 3a9.5 9.5 0 00-.4 1.4v.2l.3-3.8v-7.2l-.1-2.2-.2-3-.3-3.7-.2-2.2-.1-2v-.1h.5l3.4-.5a12 12 0 013.5 1.6 36.9 36.9 0 00-3.8 1l-1.9.8-1 .3-.1.1H82.4z" class="cls-9"/><path d="M83.5 383.6H83a.5.5 0 00-.1.2v8.6l-.3 3.8a6.3 6.3 0 01.2-.8 20.4 20.4 0 011-2.6c.6-1.3 1.4-3 3.2-6.3l.3-.6.2-.3H87.3a2.3 2.3 0 01-.5-.2 15 15 0 01-2.8-1.1c-.9-.4-3-1.9-4.8-3a50.6 50.6 0 00-4.2-4.8 28.3 28.3 0 00-10.5-5.5 29.9 29.9 0 00-8.8-1 76.3 76.3 0 00-8 1l-4.3.5-2.2.3-2 .2-5 3.5a83 83 0 00-24.7 8.2 33.6 33.6 0 001.7-5 81 81 0 0110.6-4.7c3.5-1.3 6.8-2.3 10-3.1-.6-1.7-1.6-3.4-2.2-5.1l3.5-.6 3.4-.5 3.3-.4 2.1-.3 2.4-.2a61.9 61.9 0 0119.2 1 46.2 46.2 0 019.7 4.2 53.7 53.7 0 018.1 6 10.9 10.9 0 010 4.5l4.2 3.4 2.1 1.6a3.4 3.4 0 00.4.2v.1s.3-.4-.4 1l-1.3 2.2a65 65 0 00-2.6 5.3 21.2 21.2 0 00-.9 2.3 4.5 4.5 0 00-.1.7l.3-3.7v-.3-1.7-2.3-4.7h.2zM46.4 399.3l3 1.5v.5l-3.4.5-4.2.8c-3 .6-5.8 1.3-8.5 2.1a68.6 68.6 0 00-8.3 1.5l-1.4.1a35.9 35.9 0 011.6-7 42.4 42.4 0 017.5-1.6 95.6 95.6 0 0111.2-3.2l2.7-.6 2.5-.5a35.4 35.4 0 015.3-.6 33 33 0 00-8 6.5z" class="cls-9"/><path d="M73.1 394.4a50.1 50.1 0 00-7.7-1.7 18.1 18.1 0 00-5.8-2.1 22.9 22.9 0 00-2.5.4 24.4 24.4 0 01-2.8 1.8 35.4 35.4 0 00-5.2.6l-2.6.5-2.6.6a95.6 95.6 0 00-11.3 3.2 42.4 42.4 0 00-7.5 1.6 29.4 29.4 0 00-3.3-5.7l2-.8a17.8 17.8 0 002-1.7c-1.2-1 .7-2.7 2.5-4.3s3.6-3.2 1.6-4.6l-2.4.6a72 72 0 00-11.7 3.8l-4 .4-2 .3-2 .5 1-2.2a10.6 10.6 0 00.7-1.9 83 83 0 0124.8-8.2l5-3.5 1.9-.2 2.2-.3 4.3-.6a76.3 76.3 0 018-.8 29.9 29.9 0 018.8.9 28.3 28.3 0 0110.5 5.5 50.6 50.6 0 014.2 4.9l-1.2 1.1c-3.8-2.7-5.4-3-6.7-3a13.9 13.9 0 01-5.2-.4 36.1 36.1 0 00-5.1 3.4 32.4 32.4 0 0111.2 5.8c-2-.2 1.2 2.7 1 6.1z" class="cls-12"/><path d="M36.7 376.1c1.6 1.2 2 2.1 1 3s-3.5 1.8-7.8 3l-2.4.6-.2-3.1c3-1.3 5.4-2.9 9.4-3.5z" class="cls-9"/><path d="M1182 562.6c-7.8 3.8-16.4 7.3-24.4 10.8l-10.2 4.5-3.9 1.4a33 33 0 00-12 2.7l-6.8 2.5-6.6 2.2-8.6.6a415.6 415.6 0 0041.2-15.8l22.6-8.8 8.5-1.2c0 .3 0 .6.2 1zM1099.3 567.5l-8 2.7-8.2 2.5-.4-2.2c-2.3-.3-4.5-.5-6.4-.9l1.7-1c.3.4 2 0 4.9-.8s7-1.8 12-2.9l3.9-.7.5 3.3zM1088.6 594.6l-12.6 4zM985 598.2l-12.3 2a34.5 34.5 0 01-4.5-1.2 14.3 14.3 0 012-3.2c4.3-2.9 12.3-3 14.3-6.3 5.6-1.5 14-2.3 16.8-5.5l3.9-.5a35.5 35.5 0 014.5 1.3c-1.6 2 1.3 2.3 4.8 2.3s7.6-.3 8.4 1c-2.6 1.2-4.2 2.6-8.2 3.2l-14.8 3.5-7.4 1.8zM944.7 596.3l-4.1.8-4.2.7-8.3-3.5a75 75 0 0110.4-2.3c2.6.1 5.7 0 8.3.2-.8 1.4-1.2 2.7-2 4.1zM909.2 603.2c-5.3.1-6.6 2.2-10.6 2.7l-6.5-.2-6.2-.4-12.8.4h-10.5a57.1 57.1 0 01-5.9-3.7c6.3-2.2 20.7-4 27.2-2.4l6.2-.6 6.3-.8 12.9-1.6 6-.3 6.2-.4v4.3l6.6-.5c-8.3 1.8-.9 3.5-10.5 4.4-3.1-.1-5.7-.6-8.4-.9zM723.4 618.2a22 22 0 01-1.9-1.6c-7-.6-14-1-21-1.9a17 17 0 01-2.3.4c-5.5-1.3-10.5-2.7-16-4.2l.3-1.1c1.5-.5 3-1.2 5-1.6a339 339 0 0014.2 1.2l14.9 1 10 2.6-.3 2.2c7.5 0 14 .6 18.7 2l-.4 2.7a446 446 0 01-21.2-1.7zM736.5 640.2c-6.3-.5-12.7-1-19.4-1.7l2.3.1c4.5.3 5.8-1.5 17.4 0zM648.5 607.4a8.2 8.2 0 01-2.6.7c-8.6-1.7-17.6-3.7-26.5-6-2.2-.4-4.3-1-6-1.5l-7.3-2.2-3.5-1-3.4-1.3-9-5.4.2-.5.2-.4 13.3 1 7.7 3c2.6 1 5 2 7.6 2.8a16.5 16.5 0 011.7 1.6c4.6.7 9.2 1.5 13.7 2s9 1.3 13.4 1.6l2 1zM209.4 417.2l-10-7.2 18.5 6.5a9 9 0 001.4 1.8c-4.6-1.8-4.2.7-10-1zM193.7 406.6l-12.1-5.2-6-2.5-3-1.3-3.1-1.3c-2.6-2-4.8-3.8-7.5-5.7L178 397l15.3 6.4 2 1zM153.1 432l-8-3c-4.4-2-9.2-4-13.6-5.7l.8-1.4c3.4 1.8 4.8 1.9 6 1.8a8.7 8.7 0 015 .3c4.1 2.5 8.7 5.1 12.8 7.7-1.2 0-1.9.3-3 .4zM31.7 370.9c-3.1.8-6.4 1.8-9.9 3a81 81 0 00-10.6 4.8 7.6 7.6 0 00-3 .3 29.2 29.2 0 004.6-2.9c.7-.6.6-1 0-1.3a9.1 9.1 0 00-3.5-.3 24.4 24.4 0 00-5.4.6 92 92 0 0120.1-9.7l2.6.2 3 .2c.6 1.7 1.6 3.3 2.1 5z" class="cls-12"/><path d="M1209.7 540.2c-15.8 6.7-27.6 17-38 16-5.6 3.3-15.2 3.8-16 8.6a9.3 9.3 0 01-2 1.4c-3.5.8-7 1.7-10.5 2.3a24.4 24.4 0 00-2.2-1.4l-2.1.7c-4.3 1.4-4.8 3.6-16.7 6l-4 .9-14.2 7c-4.4.7-7.2.3-12.8 2.6a637 637 0 00-14.4 3.9l-14.6 6c-5.3 1.5-11 3.3-10.6 2l-10.6 2.3-6.3-.1-10.4 4.5-8.6 2-8.6 2h-8.6l-3 1.1-3.1 1.3-6.5 2.5A30 30 0 01975 613c-4 .8-8.4 1.4-12.5 1.9a123.1 123.1 0 01-15.1 2.6 145.5 145.5 0 00-15.2 2.4l-8.5 1-4.2.6-4.3.5c-3.1-1.1-8.5.3-13 1.9l-7.5 1-7.5.9-15 1.8-4.3-.7-4.2-.6c3.2-1.9 7.8-2.9 12.8-3.6s10.4-1 15-1.9c4.5-.6 8.6-1.5 13-2.2l15.2-1.7c6.7-.2 8-3 16.9-3.8V612c2.6-.3 5-1.6 7.5-2.6a12.1 12.1 0 019.3 0c-3.5 1-7 2-10.6 3.2h17.4L971 610l10.6-2.8-6.8-2.4a45.2 45.2 0 004.4-1.5c3.5-.5 7-1 10.6-1.7l11.7-2.2 11.6-2.1a9 9 0 002.3.5c4.8-1.1 9.6-2.5 14.4-3.7l-.1-1a62.4 62.4 0 018.6-2.7l5.4-1c2-.4 4.3-1 7-1.4 5-1.6 8.7-3 12.7-4.7l6.3-2.8 7.8-3.8 12.3-1.6a24.5 24.5 0 006.8 0l10.3-3.5c1.3 0 2.7-.2 4-.1l7.3-2.5 7.3-2.6 21-4.2c10.5-4.4 23-8.5 32.3-13.5 6.3-.6 19.2-7.6 30.6-10z" class="cls-10"/><path d="M936.7 613c-9 1-10.2 3.7-16.9 3.9l-15.2 1.7-13 2.3c-4.6.7-10 1.1-15 1.8s-9.6 1.7-12.8 3.6l-6.8 1.6-12.6.7v-.5l-9 .1c-2.6-1-5.6-1.7-8.2-2.7a77.7 77.7 0 01-8.2 1.8 72.4 72.4 0 01-8.1.8c-5.1.3-9-.1-9.3-1.1l-9.2 2-12.7.8a37.2 37.2 0 01-4.4-.4 32.6 32.6 0 00-4.1-2.6l.1-1-3.6-3.2 10.8-.8 8.5.3 4.2.2 4.2.1c3 .8 8.5 0 13 0l7.3.2h7.7c1.3.1 2.7.1 4 .3l8.5-.6 7.7-.9 7.6-1 4.5-2c2.7.7 7.7.2 12 0s7.6-.4 7 1.3l14.8-1.7 3.8-.3 3.8-.5 7.6-.8c4-.5 9-.8 14.5-1.4a158 158 0 0017.5-3v1z" class="cls-13"/><path d="M826.9 629.8l-6.5.5-3.2.2-3.2.1-12.9.6-8.7-1.7-4.3 2.3h-4.5l-3.8-2 12.7-.8c3.2-.6 6-1.3 9.1-2 .4 1 4.2 1.4 9.3 1.1a72.4 72.4 0 008.2-.8 77.7 77.7 0 008.1-1.8c2.6 1 5.7 1.8 8.3 2.7zM408.7 543.9a11444.4 11444.4 0 01-149.6-70l-29.3-14.2-7.6-4.7c6.1-.2 13.6 4.5 19.5 6.1 1.8 1 44.2 21.6 87 41.7s85.7 40 87.5 40.8a64.9 64.9 0 01-7.5.3zM153.8 391l-2-1.3 8.4.1 1.8.8 7.4 5.7c-5-1.7-10.5-3.6-15.7-5.2z" class="cls-10"/><path d="M1076.7 587.6l-5.3 1.1-5.3 1c-9.5 3.1-15.3 4-17.3 2.1a12.6 12.6 0 002-1.6l17.8-4 18-4.5zM960.3 612.6H943l10.6-3.1c5.7-1.3 11.5-2.5 17.2-3.9l4-.8 6.8 2.4L971 610c-3.5 1-7 1.7-10.6 2.6zM651.8 618a9.5 9.5 0 00-2.4 0l-5-1.7-5-1.8c-.7-.7 0-1 2.2-.9a57.9 57.9 0 0110.8 2.3l-.6 2zM482 571.8l-5.6-3.6c4.3-1 12.4 4.5 17.3 5l2.6 3.4-14.3-4.8z" class="cls-13"/><path d="M1081 602l-6.5 2-6.3 1.8v-.4c1.5-.5 1.9-1.3 3.3-1.9a11.7 11.7 0 013.1-.9 52.5 52.5 0 016.4-.6zM1082.8 601.5l-1.8.6z" class="cls-8"/><path d="M474.8 583.4c-8.3-1.2-21.7-9.1-28.7-10.7-2.2.2-5.5-2-13.4-7-9.3-3.6-17.7-5.3-28.4-10.8-.8-.5-11.4-5.7-27-13.2l-56.9-27.3a4021 4021 0 01-86-42.4c2.8 1 46.1 21.8 89.8 42s87.2 40 90 41c6.4 3.2 12.8 6.4 19 9.7 8.1 3 16.2 6.2 24.6 9.5l11.6 5z" class="cls-6"/><path d="M817.4 639.1c-1 .6-1.4 1.2-2.4 1.8l-15 .7c-3 .1-6 .3-9.4.3s-7.4-.3-12.3-.7c5.9 0 3.4-1.8 8.9-2.4l6.3.4 6.8.2 17.1-.3zM749 605.9a6.8 6.8 0 01-2.1-.6 6.8 6.8 0 002.1.6zM717 638.5l-8.8.5-15.3-2.1c4.4-.8 11.6-1.9 24.2 1.6z" class="cls-12"/></g></g></g><g class="cls-14"><path d="M620.7 54.6a2.8 2.8 0 000 .3 1.4 1.4 0 000 .3 2.9 2.9 0 000 .3 2.2 2.2 0 00.2.6 2 2 0 000 .2 2.5 2.5 0 00.2.3 1.2 1.2 0 00.1.2c1.8 2.4 2.8 4.2 6.5 9.8C656.8 91 741.9 173 737.4 292.6a244.9 244.9 0 01-25.5 99.5 270.7 270.7 0 01-30.8 48.6q-4.7 14.2-10.4 28v.2a2.8 2.8 0 00-.1.3 2.3 2.3 0 000 .3 4.2 4.2 0 000 .6v.2a8.7 8.7 0 00.1.6l.2.3v.2a2.2 2.2 0 00.3.3l.2.2a3 3 0 00.2.3l.2.1.3.2.3.1a4.3 4.3 0 00.4.2 2.5 2.5 0 00.6 0 2.6 2.6 0 00.5 0h.5a1.2 1.2 0 00.2-.2l.3-.1a230 230 0 00-50.4-420.4h-.2l-.3-.1H622.9a1.8 1.8 0 00-.4.1.8.8 0 00-.2.1l-.3.2h-.1v.1a3 3 0 00-.4.3l-.1.1a2.5 2.5 0 00-.2.3 1.8 1.8 0 00-.2.2v.3a1.9 1.9 0 00-.2.3V54.7zm129 135.5c2.8-1 41.8 54.7 28.3 111.4-5.2 21.8-17.3 39.7-20.2 38.7-3.7-1.3 9.8-32 9-74.4-1-46.8-19-75-17-75.7z" class="cls-15"/><path d="M647 462c2.3 1.4 11.8-18.3 27.6-21.4a252.7 252.7 0 0057.7-148.3c4-107.3-65.9-184-99.6-214.6-4.3-2.4-8.6-4-10.8-2.3-9.8 7.6 46.8 59 60.6 145 13.2 82.7-14.1 193-30.8 225.6 0 0-7.4 14.4-4.8 16z" class="cls-16"/><path d="M893.8 492.6a37.6 37.6 0 00-73.4-16.7 66 66 0 01-23 31.8 693.5 693.5 0 01-84-4l-.3-.2-.2-.2a22.2 22.2 0 00-2-1.6h-.1l-.4-.3a21.6 21.6 0 00-2.5-1.4l-.5-.2-.5-.2-.2-.1-.9-.3-.5-.2-.7-.2a20.4 20.4 0 00-2.8-.6H698.7a19 19 0 00-4.8.7l-1 .3-1.5.6h-.2l-1.7 1-10-1.6-.2-.2-.6-.5a2.9 2.9 0 00-.3-.3l-.6-.5a19.8 19.8 0 00-3.3-2.1l-.2-.1-.5-.3a20.5 20.5 0 00-4-1.4l-.9-.1-.4-.1h-.4l-.5-.1h-3.2a18.3 18.3 0 00-3.4.4h-.2a6.6 6.6 0 00-.6.2 14.7 14.7 0 00-1.8.5l-.8.3-.2.1-.2.1-.4.2c-4-.7-7.5-1.5-10.8-2.2l-.5-.5-.8-.7-.7-.6-.2-.1-.5-.5-.9-.5-.7-.5-.9-.4a16.5 16.5 0 00-2-1l-.7-.2-1.2-.3c-.4-.1-.6-.2-.7-.9-.5.6-.8.5-1 .5l-.2.3v-.3l-1.2-.2h-.7a18.2 18.2 0 00-2.2-.1h-2l-1 .2-.8.1h-.2l-.9.3-1 .3-.7.3-10.6-2.7-.5-.5a1.5 1.5 0 00-.1-.2 6 6 0 00-.5-.5 16.3 16.3 0 00-1.4-1.3l-.4-.4-.2-.1a19.2 19.2 0 00-3-2l-.7-.3-.8-.4a7 7 0 00-.8-.3H605l-.2-.1-.4-.2-.8-.2a20.4 20.4 0 00-5.2-.7h-.8a19.9 19.9 0 00-3.9.5h-.2l-.5.2h-.5l-.7.3-.3.1-9.6-3-1.2-1.4-.1-.2-.5-.6-.7-.6-.7-.7a19 19 0 00-4-2.7l-.5-.3-.5-.2h-.1l-.8-.3-.9-.4a22 22 0 00-2.8-.7l-.7-.1-.6-.1-1-.1H565.5a20.2 20.2 0 00-2.8.2h-.7a19 19 0 00-2.4.6h-.2l-.4.2a693.3 693.3 0 01-77.4-32.8A66.2 66.2 0 01474 396v-.1a37.6 37.6 0 10-45.3 29.7 37 37 0 007.3.9 72.3 72.3 0 00-27.9 87.5 72.5 72.5 0 008.4 15.2 3 3 0 002.6 1.3 14.8 14.8 0 013.1.1 3 3 0 00-.9 4.7 72.1 72.1 0 0015 12.7 3 3 0 004.4-1.3 14.3 14.3 0 0115.3-8.4 13.5 13.5 0 00-7.8 14.9 3 3 0 001.5 2 61.1 61.1 0 0016 6.5 2.9 2.9 0 001.3 0 9.5 9.5 0 006.1-3.8 3.1 3.1 0 00.5-1A14.3 14.3 0 01490 546h.2a13.6 13.6 0 1016.3 20.6 12.1 12.1 0 00.7-1.1 2.8 2.8 0 00.4-1 14.3 14.3 0 015.6-8.4 14.1 14.1 0 0110.6-2.5h.2a13.6 13.6 0 1016.2 20.6l.8-1a3 3 0 00.3-1 14.2 14.2 0 0116.5-10.9 13.6 13.6 0 1016.2 20.6l.7-1.1a3 3 0 00.4-.9 14.2 14.2 0 0116.4-10.9 13.7 13.7 0 00-5.7 4.5 13.6 13.6 0 1022 16.1l.7-1.1a3 3 0 00.3-1 14.2 14.2 0 0116.5-10.8 13.6 13.6 0 1016.2 20.6 10.5 10.5 0 00.8-1.2 3 3 0 00.3-.8 14.2 14.2 0 0116.3-11h.2a13.6 13.6 0 1016.2 20.7l.7-1.1a3.2 3.2 0 00.4-1 14.2 14.2 0 0116.4-10.9 13.6 13.6 0 00-2.8 23.6 13.7 13.7 0 005 2.3 14 14 0 005.2.1 13.5 13.5 0 008.9-5.4 11 11 0 00.7-1.2 3.2 3.2 0 00.3-.8 14.2 14.2 0 0116.5-11 13.5 13.5 0 00-5.8 4.6 13.6 13.6 0 1022 16l.8-1.1a3.2 3.2 0 00.3-.9 14.2 14.2 0 0116-11 13.5 13.5 0 00-5.3 20.5 3 3 0 002.4 1.2l16.9-.1h.2a4.3 4.3 0 003-1.8 3.2 3.2 0 00.5-1.1 14.2 14.2 0 0116-11 13.4 13.4 0 00-5.1 4 13.8 13.8 0 00-2.6 5.5 3 3 0 003.3 3.6 72.3 72.3 0 0052.7-109.4 37.7 37.7 0 0051.9-26zm-443-86a14.3 14.3 0 1117-10.8 14.3 14.3 0 01-17 10.8zm95.5 72.2c-11-4-22-8.4-32.7-13a66.6 66.6 0 01-26.2-20.2c20.8 10 42.2 19 63.9 26.8a20.2 20.2 0 00-5 6.4zm32 13.3a2.3 2.3 0 00-.2.3v.2l-.5 1.1-.2.6a4.2 4.2 0 01-.3.5l-.1.2c0 .2-.2.3-.3.5v.1a4.4 4.4 0 01-.3.5 5 5 0 01-.4.5.6.6 0 000 .1l-.4.5a14.5 14.5 0 01-4.7 3.7l-.2.1-.5.2-.6.3-.5.2h-.1l-.8.2-.3.1h-.7l-.5.2-1 .1h-2a14.2 14.2 0 01-2.4-.3l-.8-.3-.5-.1-.8-.3h-.2l-.2-.2h-.1l-.7-.3-.6-.3-.6-.4-.5-.3a12 12 0 01-1.2-1l-.5-.4a4.5 4.5 0 01-.4-.5l-.5-.5-.4-.5v-.1a10.3 10.3 0 01-.8-1 14 14 0 01-1.6-3.7l-.1-.4a1.7 1.7 0 000-.2l-.2-.6a5 5 0 01-.1-.5 1 1 0 000-.2v-.5a.3.3 0 000-.1v-.5a1.6 1.6 0 010-.3 2 2 0 000-.2 9.4 9.4 0 010-1.2v-.2a13.5 13.5 0 01.5-2.9 3.4 3.4 0 00.1-.6 14.2 14.2 0 018.3-8.9h.2l.6-.3h.4a14 14 0 011.4-.5h.5a13.9 13.9 0 012-.2h.8l.8.1h.5l.4.1a14.2 14.2 0 012 .5l.7.3.6.2.4.2.2.2a13.5 13.5 0 013 2l.4.4a11 11 0 011 1 14.3 14.3 0 013 12.5v.8zm33.1 9.7a1 1 0 000 .2 14.1 14.1 0 01-1.1 2.9 4.5 4.5 0 01-.3.5c0 .2-.2.3-.3.5l-.1.2a1.4 1.4 0 00-.2.2 10.4 10.4 0 01-.6 1l-.3.3a3 3 0 00-.2.2 4 4 0 01-.3.3 5 5 0 01-.4.4l-.2.2a7.5 7.5 0 01-.7.6l-.4.3a6.4 6.4 0 01-.6.4l-.5.4a13.4 13.4 0 01-3 1.4h-.4l-.8.3-.6.1h-.6l-.4.2h-.5a6.2 6.2 0 01-.8 0H596a13.8 13.8 0 01-1.6-.3l-.7-.2-.6-.2-.7-.2-.7-.3-.4-.2h-.2l-.5-.4h-.1a5 5 0 01-.5-.3h-.1l-.4-.4h-.1l-.3-.2a2 2 0 01-.4-.3 2.8 2.8 0 01-.3-.3h-.1a3.7 3.7 0 01-.3-.3l-.1-.1-.2-.2-.2-.2a4 4 0 01-.3-.3l-.3-.3v-.1l-.3-.3-.5-.5a14.1 14.1 0 01-2-4l-.2-.7-.1-.3v-.1a14.3 14.3 0 01-.5-3.2v-.7a5.8 5.8 0 010-.6 13.4 13.4 0 01.6-2.9v-.2l.1-.3v-.4a14.3 14.3 0 018.1-8.5H592.4l.6-.3.4-.1a1.9 1.9 0 00.3-.1h.1l.6-.1a13.8 13.8 0 012.8-.4h.5a13.8 13.8 0 013 .4l.7.1a4 4 0 01.4.2h.4l.2.1.3.1h.2l.2.2a5.9 5.9 0 01.6.2l.4.3h.1a13.2 13.2 0 012.1 1.4l.3.3h.1a9.5 9.5 0 011 1l.4.4v.1l.5.5.3.4a14.3 14.3 0 012.5 11.7 3.8 3.8 0 010 .5zM628 521a13.7 13.7 0 01-2-.6h-.1l-.6-.2-.2-.2h-.1l-.3-.2h-.1l-.6-.3a9 9 0 01-.7-.5 5.6 5.6 0 01-.5-.3l-.4-.3-.2-.1-.5-.5-.5-.5-.4-.4h-.1l-.4-.6a10 10 0 01-.5-.6h-.1a3.6 3.6 0 01-.3-.4l-.3-.6-.1-.2-.2-.2v-.2l-.4-.6v-.2a4.8 4.8 0 01-.3-.5l-.3-.6c0-.2 0-.3-.2-.5a14 14 0 01-.5-2.2l-.1-.5v-.2-.4-.9a1.8 1.8 0 010-.3v-.3-1.3c0-.4.1-1 .3-1.4l.1-.6a2.5 2.5 0 00.1-.5 14.4 14.4 0 018.4-9.3h.2l.6-.3.6-.2.7-.2h.7l.6-.2h.8a5.5 5.5 0 01.6 0 10.6 10.6 0 011.6 0h1.4l1.2.3h.1l.8.3.4.1a13.6 13.6 0 011.5.7l.3.1.3.2.6.4.6.4.5.4.6.5.4.4.5.4a1 1 0 00.1.2 14.4 14.4 0 013.5 12.5v.3a14.3 14.3 0 01-17.1 10.9zm50.2-2.7l-.2.6-.1.2-.2.3v.1a11.2 11.2 0 01-.7 1.2l-.7 1-.5.7-.4.4a11.3 11.3 0 01-1 1h-.1l-.7.6-.4.3-.5.3-.6.4-.5.3h-.1l-.4.2-.3.1-.5.2h-.1a4 4 0 01-.5.2h-.1l-.6.2-.7.2-.4.1H667.5a13.3 13.3 0 01-1.9.3h-2.2l-.7-.1-.7-.2a14.8 14.8 0 01-2.4-.6l-1.2-.6a14.1 14.1 0 01-2.4-1.5 3.6 3.6 0 01-.4-.3l-.5-.4a13.4 13.4 0 01-1-1 10.3 10.3 0 01-.8-1l-.3-.6-.4-.6-.3-.5v-.1l-.2-.3-.1-.2a13 13 0 01-.8-2v-.2a16.7 16.7 0 01-.3-1.8v-.1a3.1 3.1 0 010-.3 1.2 1.2 0 000-.2l-.1-1.1v-.5-.4a2.5 2.5 0 000-.3v-.3l.1-.9.1-.7a2.5 2.5 0 000-.2v-.3a14.4 14.4 0 017.4-9.5l.4-.2h.1l.6-.3h.1l.4-.2h.1a9.4 9.4 0 011.3-.4h.5a13.5 13.5 0 012.6-.4h2.5a3.9 3.9 0 01.4 0h.1a14.4 14.4 0 013.4 1.1l.1.1.2.1.2.1a13.3 13.3 0 012.5 1.6l.4.3.1.2a1.3 1.3 0 00.1 0l.3.4a5.8 5.8 0 01.5.4 5 5 0 01.6.7A16.2 16.2 0 01679 514v1.4c0 .1 0 .3-.2.4v.1a15 15 0 01-.7 2.3zm34.3 6.2a1.2 1.2 0 010 .1l-.1.3v.2l-.5.7-.2.3-.1.2-.3.4a14 14 0 01-1.4 1.7v.1l-.4.3a14.4 14.4 0 01-2.8 2.1l-.4.3a14.4 14.4 0 01-4.4 1.4h-.5a5.8 5.8 0 01-.6.1H699a14.4 14.4 0 01-5.4-1.3l-.5-.2-.8-.4-.3-.2-.2-.1a3.6 3.6 0 01-.4-.3 13.3 13.3 0 01-1.2-1l-.5-.4-.4-.4-.7-.8a6.1 6.1 0 01-.4-.5l-.3-.5a14.4 14.4 0 01-2.3-5.5v-.2-.4-.1a1.4 1.4 0 000-.2v-.3-.7-.7-1.5a4.3 4.3 0 00.1-.6.8.8 0 000-.2v-.2l.1-.7a14.2 14.2 0 016.3-8.9 15.7 15.7 0 012-1l1.2-.5.7-.2a13.4 13.4 0 013.5-.6h1.3l.8.1a13.4 13.4 0 012 .4h.5l.3.2.7.2.4.2h.4a13.7 13.7 0 011.7 1l.2.1v.1l.2.1a12.4 12.4 0 011.4 1.1l.1.1.2.2.4.5h.2a14.2 14.2 0 013.6 12 .8.8 0 000 .1v.1a1.9 1.9 0 000 .3v.4a14.3 14.3 0 01-1.4 3.2zm42.4-3.9c-11.7-.5-23.5-1.3-35.2-2.4a20 20 0 00-1.7-8c23 2.4 46.2 3.5 69.2 3.6a66.6 66.6 0 01-32.3 6.8zm82.2-26.2a14.3 14.3 0 01-11-16.5l.4-1v-.3a3 3 0 00.2-.7 14.3 14.3 0 1110.4 18.5z" class="cls-17"/></g><path d="M457.2 206.4a50 50 0 00-48-50A87.5 87.5 0 00243 133a62.4 62.4 0 00-64.7 25 50 50 0 10-12.3 98.5h243.4a50 50 0 0047.9-50z" class="cls-18"/><path d="M1124.4 345.6a29 29 0 00-27.7-28.9 50.6 50.6 0 00-96.2-13.6 36.5 36.5 0 00-7.9-.9 36 36 0 00-29.5 15.4 29.3 29.3 0 00-7.1-.9 29 29 0 100 57.8h140.7a29 29 0 0027.7-28.9z" class="cls-19"/><path d="M-8.7 377.6c36-16.5 69-5.2 260.2 65.7 303.6 112.5 287 108.8 304.7 113.4 247.8 63.9 490.9 6.8 540.4-5.6 152.6-38.1 208.2-86.6 255.8-52.2 68.6 49.5 69.4 234.7-20 333.6-116.6 128.8-299.3 14.9-754 32.2-388.7 14.8-519.6 108.2-621.5 10-130.3-125.5-86.2-441.8 34.4-497z" class="cls-20"/><path d="M-8.7 377.6c36-16.5 69-5.2 260.2 65.7 303.6 112.5 287 108.8 304.7 113.4 247.8 63.9 490.9 6.8 540.4-5.6 152.6-38.1 208.2-86.6 255.8-52.2 68.6 49.5 69.4 234.7-20 333.6-116.6 128.8-299.3 14.9-754 32.2-388.7 14.8-519.6 108.2-621.5 10-130.3-125.5-86.2-441.8 34.4-497z" class="cls-21"/></svg>